<svg data-v-79459695="" width="20px" height="20px" viewBox="0 0 50 50"
    xmlns="http://www.w3.org/2000/svg">
    <path fill="#464646"
        d="M35.35 33.68h-2.8V25.1c0-2.87-2.4-4.33-4.94-4.33-3.08 0-5.02 2.45-5.02 5.34 0 2.83 2.07 5.21 4.98 5.21 1.6 0 2.9-.89 3.84-2.1v3.31a6.2 6.2 0 0 1-4.12 1.46c-4.38 0-7.49-3.62-7.49-8.1 0-4.35 2.98-7.79 7.87-7.79 4.7 0 7.68 2.86 7.68 7.25zM16.4 16.92a1.63 1.63 0 0 1-1.68-1.68c0-.86.6-1.69 1.68-1.69s1.68.83 1.68 1.69-.6 1.68-1.68 1.68m1.4 16.92c0 4-2.6 5.56-6.2 5.56h-.82v-2.67h.73c2.73 0 3.5-.7 3.5-3.5v-14.8h2.78zm10.26-20.78h3.42l-3.62 3.73H25.7zM24.96 0A25 25 0 0 0 0 25v25h24.95a25 25 0 0 0 24.96-25c0-13.8-11.18-25-24.96-25"
        fill-rule="evenodd"></path>
</svg>