<?xml version="1.0" standalone="no"?>
<!DOCTYPE svg PUBLIC "-//W3C//DTD SVG 20010904//EN"
 "http://www.w3.org/TR/2001/REC-SVG-20010904/DTD/svg10.dtd">
<svg version="1.0" xmlns="http://www.w3.org/2000/svg"
 width="24" height="24" viewBox="0 0 480.000000 480.000000"
 preserveAspectRatio="xMidYMid meet">

  <circle cx="240" cy="240" r="240" fill="#FBE300"/>

  <g transform="translate(0.000000,480.000000) scale(0.100000,-0.100000)"
     fill="#017cff" stroke="none">
    <path d="M2250 4224 c-14 -2 -59 -9 -100 -15 -157 -23 -383 -125 -538 -241
    -323 -245 -515 -626 -516 -1028 -1 -231 53 -408 202 -660 58 -98 184-270 256
    -351 180 -200 310-375 420-564 77-131 221-433 256-535 76-225 99-260
    170-260 67 0 93 33 146 190 58 170 196 465 298 635 84 141 223 331 341 465
    277 315 429 574 498 849 16 68 21 116 21 226 -1 486 -272 928 -704 1149
    -122 63 -227 102 -325 122 -68 14 -374 27 -425 18z m221 -864 c167 -32
    314 -162 354 -315 55 -212 -39 -420 -231 -515 -130 -64 -257 -64 -387 0
    -192 94 -286 304 -232 515 30 113 123 222 236 275 101 47 169 57 260 40z"/>
  </g>
</svg>
