<svg width="14px" height="14px" version="1.1" id="Layer_1" xmlns:x="ns_extend;" xmlns:i="ns_ai;" xmlns:graph="ns_graphs;" xmlns="http://www.w3.org/2000/svg" xmlns:xlink="http://www.w3.org/1999/xlink" x="0px" y="0px" viewBox="0 0 61.2 62" style="enable-background:new 0 0 61.2 62;" xml:space="preserve">
 <style type="text/css">
  .st0{fill-rule:evenodd;clip-rule:evenodd;fill:#05CB63;}
 </style>
 <metadata>
  <sfw xmlns="ns_sfw;">
   <slices>
   </slices>
   <sliceSourceBounds bottomLeftOrigin="true" height="62" width="61.2" x="72" y="169">
   </sliceSourceBounds>
  </sfw>
 </metadata>
 <g>
  <g>
   <path class="st0" d="M29.4,46c1.1,0.6,28.1,15.3,29,15.7c1.7,0.9,3.5-0.9,2.6-2.6c-0.5-0.9-15.1-28.6-15.6-29.4
			c-0.5-0.8-1.7-1.3-2.6-0.7c-0.9,0.6-1.9,1.2-2.5,1.5c-1.2,0.6-1.3,1.5-0.8,2.5c1.2,2.2,4.8,9,5.2,9.7c0.9,1.5-1.1,3.2-2.4,2.4
			c-0.6-0.3-9.1-4.9-9.7-5.3c-0.6-0.4-1.7-0.4-2.4,0.9c-0.5,0.8-1,1.7-1.5,2.5C28.1,44.4,28.3,45.4,29.4,46L29.4,46z M0.9,30.5
			c-1.4-0.8-1.2-2.9,0.6-3.4c1.5-0.4,14-4.7,17.8-6.1c0.7-0.2,1.2-0.8,1.4-1.5l6.1-18.3c0.6-1.7,2.6-1.7,3.5-0.1
			c0.3,0.6,11.6,21.6,12,22.5c0.4,0.9,0.1,1.9-0.8,2.4c-0.9,0.6-2.3,1.4-2.8,1.7c-0.9,0.6-1.8,0.2-2.2-0.7c-0.4-0.9-3.6-6.7-5-9.2
			c-0.7-1.2-2.6-1.7-3.3,0.3l-2.2,6.6c-0.2,0.7-0.8,1.2-1.5,1.5L18,28.6c-1.3,0.4-1.9,2.5-0.2,3.4c0.4,0.2,8.3,4.5,9.1,4.9
			c0.8,0.4,1.3,1.5,0.8,2.4c-0.7,1.1-1.5,2.5-1.8,3c-0.5,0.8-1.6,1.1-2.4,0.6C22.7,42.3,1.4,30.8,0.9,30.5L0.9,30.5z M0.9,30.5">
   </path>
  </g>
 </g>
</svg>