<svg width="15" height="15" viewBox="0 0 152 214" fill="none" xmlns="http://www.w3.org/2000/svg">
<path d="M147.351 100.229C140.601 136.898 128.181 176.067 101.244 212.556C100.663 213.343 99.5919 213.59 98.7235 213.138L64.9486 195.575C63.8441 195.001 63.5266 193.569 64.2758 192.575C78.6229 173.534 96.0678 144.426 105.465 106.96C105.465 106.96 133.486 101.619 147.351 100.229Z" fill="url(#paint0_linear_59_8)"/>
<path d="M151.091 26.9271C151.091 41.7986 139.035 53.8543 124.164 53.8543C109.293 53.8543 97.2368 41.7986 97.2368 26.9271C97.2368 12.0557 109.293 0 124.164 0C139.035 0 151.091 12.0557 151.091 26.9271Z" fill="#FF9900"/>
<path d="M147.337 100.507C149.735 87.7925 150.581 75.1959 151.091 62.8291C89.4997 65.1754 26.7103 97.4229 1.47643 114.195C0.621573 114.763 0.371993 115.874 0.860877 116.777L18.3516 149.067C18.9304 150.136 20.3142 150.45 21.3022 149.742C43.1471 134.1 94.3122 105.322 147.337 100.507Z" fill="url(#paint1_linear_59_8)"/>
<defs>
<linearGradient id="paint0_linear_59_8" x1="133.14" y1="100.229" x2="51.6841" y2="134.708" gradientUnits="userSpaceOnUse">
<stop stop-color="#067647"/>
<stop offset="1" stop-color="#0BDC84"/>
</linearGradient>
<linearGradient id="paint1_linear_59_8" x1="195.222" y1="40.3898" x2="18.6994" y2="145.106" gradientUnits="userSpaceOnUse">
<stop stop-color="#067647"/>
<stop offset="1" stop-color="#0BDC84"/>
</linearGradient>
</defs>
</svg>